<mxfile host="app.diagrams.net" modified="2022-07-27T15:04:32.410Z" agent="5.0 (Macintosh; Intel Mac OS X 10_15_7) AppleWebKit/537.36 (KHTML, like Gecko) Chrome/103.0.0.0 Safari/537.36" etag="hZQ1OSIyvCkeK6Ivq65Z" version="20.1.2" type="github">
  <diagram id="T0ilVsNC7wKxDNPLaUD6" name="Page-1">
    <mxGraphModel dx="770" dy="432" grid="1" gridSize="10" guides="1" tooltips="1" connect="1" arrows="1" fold="1" page="1" pageScale="1" pageWidth="850" pageHeight="1100" math="0" shadow="0">
      <root>
        <mxCell id="0" />
        <mxCell id="1" parent="0" />
        <mxCell id="-1c-Uow--uqYdpP_RSEN-1" value="REQUERIMIENTO DEL PERSONAL" style="rounded=0;whiteSpace=wrap;html=1;" vertex="1" parent="1">
          <mxGeometry x="130" y="130" width="120" height="60" as="geometry" />
        </mxCell>
        <mxCell id="-1c-Uow--uqYdpP_RSEN-2" value="CANDIDATO&lt;br&gt;APTO" style="rhombus;whiteSpace=wrap;html=1;" vertex="1" parent="1">
          <mxGeometry x="325" y="220" width="100" height="80" as="geometry" />
        </mxCell>
        <mxCell id="-1c-Uow--uqYdpP_RSEN-4" value="FIN" style="ellipse;whiteSpace=wrap;html=1;aspect=fixed;" vertex="1" parent="1">
          <mxGeometry x="480" y="220" width="80" height="80" as="geometry" />
        </mxCell>
        <mxCell id="-1c-Uow--uqYdpP_RSEN-6" value="CONTRATACIÓN" style="rounded=0;whiteSpace=wrap;html=1;" vertex="1" parent="1">
          <mxGeometry x="315" y="320" width="120" height="60" as="geometry" />
        </mxCell>
        <mxCell id="-1c-Uow--uqYdpP_RSEN-7" value="ACREDITACIÓN" style="shape=process;whiteSpace=wrap;html=1;backgroundOutline=1;" vertex="1" parent="1">
          <mxGeometry x="315" y="420" width="120" height="60" as="geometry" />
        </mxCell>
      </root>
    </mxGraphModel>
  </diagram>
</mxfile>
